<?xml version="1.0" standalone="no"?>
<!DOCTYPE svg PUBLIC "-//W3C//DTD SVG 20010904//EN"
 "http://www.w3.org/TR/2001/REC-SVG-20010904/DTD/svg10.dtd">
<svg version="1.0" xmlns="http://www.w3.org/2000/svg"
 width="1024.000000pt" height="1024.000000pt" viewBox="0 0 1024.000000 1024.000000"
 preserveAspectRatio="xMidYMid meet">
<symbol id="mountain-flag" viewBox="0 0 1024 1024">
<g transform="translate(0.000000,1024.000000) scale(0.100000,-0.100000)"
fill="#e63946" stroke="none">
<path d="M5543 7846 l-28 -24 0 -821 c0 -452 -3 -821 -7 -821 -5 0 -8 4 -8 9
0 14 -154 226 -218 301 -31 36 -59 69 -62 73 -7 8 -161 -199 -660 -885 -107
-147 -198 -267 -201 -268 -3 0 -70 56 -149 124 l-143 125 -47 -62 c-26 -34
-206 -278 -400 -542 -402 -546 -657 -891 -974 -1315 -172 -231 -532 -727 -625
-861 -40 -57 522 353 789 577 421 352 656 593 1023 1049 66 83 126 156 133
164 10 11 42 -13 184 -140 94 -85 174 -155 178 -156 4 -1 113 199 242 445 128
246 299 569 378 717 80 149 161 301 181 338 l35 68 37 -298 c21 -164 44 -332
51 -375 l13 -76 256 -289 c142 -158 288 -321 325 -362 l69 -74 -40 6 c-22 3
-96 11 -165 17 -69 6 -214 21 -322 33 -109 12 -198 21 -198 21 0 -2 409 -694
584 -988 58 -98 106 -179 106 -181 0 -2 -230 76 -623 212 -103 35 -191 63
-196 61 -11 -4 -217 -229 -446 -487 -104 -118 -239 -269 -300 -336 -302 -332
-435 -485 -423 -485 7 0 78 15 158 34 326 76 608 189 890 354 115 68 352 218
438 278 34 24 62 41 62 38 0 -10 -113 -151 -431 -540 -316 -386 -403 -494
-397 -494 2 0 64 30 138 66 74 36 335 163 580 281 245 119 498 242 562 274
l117 58 58 -26 c268 -119 527 -232 530 -230 1 2 -24 84 -58 183 -93 277 -308
948 -305 951 2 2 188 -103 769 -436 l59 -34 -15 29 c-8 16 -35 81 -60 144 -25
63 -118 297 -206 519 -89 222 -161 407 -161 412 0 5 69 -48 153 -118 221 -186
876 -709 1062 -849 148 -112 473 -349 503 -368 14 -9 -256 347 -532 699 -379
485 -995 1265 -1016 1288 -6 7 -163 -76 -198 -105 -9 -8 -16 -7 -25 5 -195
250 -619 828 -790 1078 l-87 127 0 551 0 551 86 0 c299 0 571 109 748 301 69
74 186 246 186 272 0 2 -24 -4 -52 -14 -107 -37 -269 -17 -498 61 -181 62
-267 80 -381 80 l-89 0 0 26 c0 15 -12 38 -29 55 -37 36 -79 38 -118 5z"/>
<path d="M3974 3889 c-283 -263 -418 -396 -548 -539 -78 -86 -193 -212 -256
-281 -173 -188 -332 -369 -325 -369 12 0 282 113 371 155 182 87 322 215 422
385 162 277 352 595 398 668 30 45 52 82 51 82 -2 0 -52 -46 -113 -101z"/>
</g>
</symbol>
</svg>
